<?xml version="1.0" encoding="UTF-8"?>
<svg xmlns="http://www.w3.org/2000/svg" version="1.1" viewBox="0 0 500 500">
  <defs>
    <style>
      .cls-1 {
        fill: #e2ab81;
      }

      .cls-2 {
        stroke-width: 2px;
      }

      .cls-2, .cls-3, .cls-4, .cls-5 {
        fill: none;
        stroke: #000;
        stroke-linecap: round;
      }

      .cls-2, .cls-3, .cls-5 {
        stroke-miterlimit: 10;
      }

      .cls-6 {
        fill: #eaa595;
      }

      .cls-7 {
        fill: #9e252a;
      }

      .cls-4 {
        stroke-linejoin: round;
      }

      .cls-8 {
        fill: #eabbd2;
      }

      .cls-9 {
        fill: #f5c7a1;
      }

      .cls-10 {
        fill: #fff;
      }

      .cls-11 {
        fill: #a83b3b;
      }

      .cls-12 {
        fill: #bb252a;
      }

      .cls-13 {
        fill: #e2aa8e;
      }

      .cls-14 {
        fill: #eaadc4;
      }

      .cls-15 {
        fill: #e5a3be;
      }

      .cls-16 {
        fill: #ea94c4;
      }

      .cls-5 {
        stroke-width: 3px;
      }

      .cls-17 {
        fill: #b7252a;
      }

      .cls-18 {
        fill: #da252a;
      }

      .cls-19 {
        fill: #8a1e1e;
      }
    </style>
  </defs>
  <!-- Generator: Adobe Illustrator 28.6.0, SVG Export Plug-In . SVG Version: 1.2.0 Build 709)  -->
  <g>
    <g id="Capa_1">
      <g id="OBJECTS">
        <g id="cuerpo_inferior">
          <path class="cls-17" d="M369.3,309.8s.9,1.8,2.4,4.9c5.9,12.3,21.8,45.5,33.9,71.4,15.1,32.5,28.7,52.9,28.7,52.9,0,0-16.6-5.3-49.9-2.3-33.2,3-37.8,12.8-98.2,15.1-60.4,2.3-117.9-6.8-144.3-19.6-8.3-118.6-6.8-168.5,41.6-197.2"/>
          <g>
            <g>
              <path class="cls-9" d="M167.6,473c5.7,9.3,24.2,12.2,33.3,8.6l30.9-80.4-51.8-8.7s-8.7,29.1-14.7,68.8c-2.8.2-5.8.6-8.7,1.2,3.5,2.1,7.8,5.4,11,10.5Z"/>
              <path d="M197,491.5l3.8-9.9c-9,3.5-27.6.7-33.3-8.6-3.1-5.1-7.5-8.5-11-10.5-13.5,2.6-26.8,8.2-26.8,8.2,0,0,14.7,9.1,39.7,15.9,24.9,6.8,27.6,4.9,27.6,4.9Z"/>
            </g>
            <path class="cls-13" d="M180,392.5s-1.6,5.3-3.9,14.6c6.3,3.5,28.2,16.8,39.2,37l16.5-42.8-51.8-8.7Z"/>
          </g>
          <g>
            <path class="cls-9" d="M265.4,394s23.8,54,60.1,66.5l2.3,13.6s-1.9,13.2-.4,16.2c1.5,3,7.9,1.1,11.7-.8,3.8-1.9,15.9-35.5,17-42.3,0,0-17.7-24.3-18.9-26.1-10.6-15.1-20-38.2-20-38.2l-51.8,11Z"/>
            <path class="cls-13" d="M293.7,437.7c7-6.4,21.6-18.3,38.7-23.8-8.5-14.2-15.3-30.7-15.3-30.7l-18.4,3.9-31.8,10.4c3.5,7.2,13,25.1,26.7,40.3Z"/>
            <path d="M326.6,470.3s2.3-.4,10.6-4.5c8.3-4.2,14.4-16.6,14.7-24.2l4.5,5.7s-.4,7.6-5.3,21.5c-4,11.5-8.3,21.2-14,23-5.7,1.9-12.1.8-12.1.8,0,0,0-14.7,1.5-22.3Z"/>
          </g>
          <g>
            <g>
              <path class="cls-9" d="M181.7,286.6l-20.8,10.2c-5.1,2.5-11.1,1.9-15.6-1.6-10-7.9-26.1-25.6-30.9-60l19.1-14.1,20.7,36,14.6-6.8,12.8,36.3Z"/>
              <path class="cls-9" d="M117,235.1c-2.6.3-5.3.3-7.8-.1-1.9-.3-3.8-.9-5.2-2.2-3-2.9-1.9-7.8-.6-11.8-3,0-6.1-.3-9.1-.7-1.4-.2-3.3-1-3.1-2.4.1-1.1,1.5-1.6,2.6-1.9,3.4-.8,6.8-1.7,10.2-2.5-3.5-.3-7-.7-10.5-1.3-1.5-.2-3.2-.7-3.6-2.2-.5-1.9,2-3.2,3.9-3.6,4.6-1,9.4-1.4,14.1-1.1-3-2.2-6.7-3.4-10.5-3.5-1.7,0-3.6,0-4.6-1.2-1-1.3-.4-3.3.8-4.3,1.3-1,3-1.3,4.6-1.3,5.7-.2,11.4,1.5,16.1,4.8-.6-3.8-2.9-7.3-6-9.4-2.2-1.4-5.1-3.1-4.6-5.6.5-2.2,3.4-2.8,5.7-2.5,4.8.8,9.1,4,11.4,8.3,1.8,3.6,2.3,7.8,4.2,11.3.8,1.6,2,3,3,4.5,3.8,5.5,6.3,11.9,7.3,18.5l-18.3,10.1Z"/>
              <path class="cls-3" d="M120.3,208.2s-14.7-.4-14.4,12.5"/>
              <path class="cls-9" d="M117.7,224.7c0,.4-3-9.9,3.6-13.9-2.2-.2-4.3-.8-6.2-1.7-1.1-.5-2.4-1.4-2.3-2.7,0-.8.5-1.4,1-1.9,3.5-3.5,9.4-3.6,13.7-1.2,1,.5,1.9,1.2,2.6,2.1,1.2,1.5,1.7,3.5,2,5.5.3,1.9.5,3.8.6,5.7l-14.9,8.1Z"/>
              <path class="cls-4" d="M126.8,203c-2.2-.5-4.5-.9-6.8-.8-2.3.2-4.6,1-6.1,2.8-.5.6-.9,1.4-.6,2.2.3.8,1.3,1.1,2.2,1.3,2.1.5,4.2,1,6.3,1.5-5.3,2.1-6.1,10-3.8,14.5"/>
            </g>
            <path class="cls-13" d="M160.9,296.8s4.8-14.6,21.4-22.6l4.5,9.8-26,12.7Z"/>
            <polygon class="cls-13" points="154.2 257.1 147.9 268.2 135.2 224.9 154.2 257.1"/>
          </g>
          <g>
            <path class="cls-8" d="M165.2,250.4c-3,1.1-5.4,4-5.4,7.2,0,3.2,2.7,6.3,5.9,6.3-2.6,2.1-3.7,5.9-2.4,9s4.7,5.2,8,4.8c-1.1,2.2-1.7,4.7-1,7.1,1.5,4.8,4.4,6,6.8,5.6l5.8-1.8-15.6-38-2.1-.2Z"/>
            <path class="cls-16" d="M196.3,238.8l-29.3,9.8c-1.3.4-2,1.9-1.5,3.2l14.9,37.2c.4,1.1,1.7,1.8,2.8,1.5,3.9-.9,12.6-3.5,18.3-8.6l-5.3-43.1Z"/>
          </g>
          <g>
            <path class="cls-14" d="M196.3,238.8s-6.8,9.8-5.3,22.7c1.5,12.8,3.8,21.9.8,28-3,6,.8,11.3,5.3,15.9l108.8-1.5,3.8-67.2s-19.6-14.4-52.1-12.8c-32.5,1.5-49.9,4.5-49.9,4.5l-11.3,10.6Z"/>
            <path class="cls-15" d="M230.2,288.2c.4,1.4.9,2.8.8,4.2-.5,4.4-6.4,6.3-7.7,10.6,24.6-2.1,49.5-2.1,74.1.2-3.2-16.6-5.5-33.4-6.7-50.3-.2-3.3-.4-6.6-1.6-9.6-2.7-7.5-10.4-12.2-18.2-13.6-7.8-1.4-15.8-.1-23.6,1.2-2.8.5-5.6.9-8.4,1.4-1.6.3-3.3.4-4.8,1-3.4,1.2-4.1,5.1-4.9,8.2-2.7,9.8-3.6,20.1-2.5,30.2.6,5.7,1.8,11.2,3.5,16.7Z"/>
            <path class="cls-1" d="M211.8,228.6s14.4,17.8,54-1.1l4.5-9.1-32.1,2.6s-27.2,2.3-26.4,7.6Z"/>
            <g>
              <path class="cls-16" d="M165.9,393.3c-1.1,2.7-1.4,5.6-.8,8.4.4,2.1,1.5,4.4,3.6,5.1,3.6,1.1,6.5-2.8,8.1-6.1.3,3.6,3.7,6.6,7.4,6.7,3.7,0,7.1-2.9,7.6-6.5,1.5,4.5,5,9.4,9.8,8.8,4-.5,6.4-4.4,8.2-7.9.5,2.7,1,5.4,2.4,7.8s3.9,4.3,6.7,4.4c2.6,0,5-1.6,6.4-3.7s2-4.6,2.3-7.1c.6,2.4,1.3,4.8,2.7,6.9s3.9,3.5,6.5,3.2c4-.6,5.8-5.1,6.9-8.9.5,4.4,4.1,8.4,8.6,8.7,4.5.3,8.9-4.2,7.7-8.4,0,4.8,4.6,9.1,9.5,8.9,4.9-.1,9.2-4.7,9-9.5-.7,3.3,4.3,9.2,7.8,9.3,6.3.3,9.6-5.7,9.1-9.1,1,3.3,3.3,7.8,5.5,8.3,2.2.5,5.3.5,7.8-3.5,1.2-1.9,2.4-4.1,2.8-6.3,1.4,4.3,1,10.1,7.3,9.3,4.6-.6,9.3-4.6,8.3-9.1,1.3,4.9,3.7,8.3,8.8,7.3,5.1-1,7.2-6,6.5-11l-1.6-7.7-174.8,1.6Z"/>
              <path class="cls-14" d="M197,305.2s-29.5,28-34,88.4c49.1,13.6,163.2,5.3,182.9,1.5-9.8-47.6-40-91.4-40-91.4l-108.8,1.5Z"/>
            </g>
            <path class="cls-18" d="M195.9,303.7l110.3-2.6-.4,4.2-108.8,1.5s-1.9,1.1-1.1-3Z"/>
          </g>
          <g>
            <path class="cls-19" d="M228.8,298.8s-9.4,21.2-11,34l-.8,3,14.4,1.5,8.7-35.9-11.3-2.6Z"/>
            <g>
              <path class="cls-9" d="M280.9,272c-.4,1.1-3,18.1-3,18.1l-34.4-3.4-4.9,24.9s22.9,5.4,48,11.7c1.5.4,15.9,1.9,20-8.7,4.2-10.6,10.9-41.8,10.9-41.8l-36.6-.9Z"/>
              <path class="cls-13" d="M264.3,316.6s-12.8-28-15.9-29.8c9.1,1.1,11,1.1,11,1.1l4.9,28.7Z"/>
              <polygon class="cls-13" points="277.9 290.1 292.2 292.4 288.5 268.2 281.7 262.6 277.9 290.1"/>
              <g>
                <path class="cls-9" d="M242.7,312.4c-6.4-1-15.7-3.3-21.4-6.3-2.8-1.5-5.5-3.2-7.6-5.7-4.5-5.3-5-12.8-5.2-19.8,0-1,0-2.1.5-3,.5-.9,1.7-1.4,2.6-.8.2-2.4.4-5.1,2-6.9,1.6-1.8,5.1-2.2,6.2,0-1.5-2.1.3-4.3,2.9-4s4.1,2.6,5.3,4.9,3.3,4.1,5.2,5.9c-.7-2.5-1-5.1-1-7.6,0-.5,0-1,.3-1.5.7-1.2,2.7-.8,3.5.2.9,1.1,1,2.6,1.5,3.9,1.2,3.6,4.4,6.1,7,8.9s4.6,6.9,2.9,10.3l-4.6,21.5Z"/>
                <path class="cls-4" d="M230.7,273.8c2.6,2,5.1,3.9,7.7,5.9"/>
                <path class="cls-4" d="M219.5,267.8c.3,7,4.7,13.6,11,16.6.2,0,.4.2.3.4"/>
                <path class="cls-4" d="M213.6,270.1c0,2.3.7,4.5,1.5,6.6,2.1,5.5,5.3,10.9,10.6,13.5"/>
                <path class="cls-4" d="M211.8,276.5c1,7,2.4,14.6,7.8,19.2"/>
              </g>
            </g>
            <path class="cls-19" d="M259.4,287.9s3.8,17.4,5.3,47.6l13.6.4s-3-34.4-7.6-48.7c-4.5-14.4-25.2-11.4-26.2-6.5,0,0,3.5,4.2,3.9,6.1l11,1.1Z"/>
            <g>
              <path class="cls-11" d="M201.9,334.7s-6,50.2,42.7,51.8c48.7,1.5,52.5-43.8,54-50.6l-96.7-1.1Z"/>
              <path class="cls-19" d="M204.4,326.9l93.1,1.7c4,0,7.1,3.4,7,7.3h0c-.1,3.8-3.2,6.7-7,6.6l-93.4-2c-4,0-7.1-3.6-6.6-7.6h0c.4-3.5,3.4-6.1,6.9-6.1Z"/>
            </g>
          </g>
          <g>
            <g>
              <path class="cls-17" d="M213.7,200.6l-25.3-130,6.4-26.8-11.7.6c-1.2-.9-5-2.6-15.8-1.1-14.1,2-25.7,12.6-25.7,12.6,0,0,3.5,22.2,2,30.2-.8,4.3-2.9,15.8-4.6,25.6-2.8,7.5-7.1,39.2-.1,62.8,12.1,40.8,41.2,57.8,85.8,49.1l-11-23Z"/>
              <path class="cls-7" d="M224,223.7c-.4-1.3-.8-2.6-1.2-3.9l-9.1-19.2-.4-1.9c-16.7-29.2-45.5-51.7-78.1-59.9-.4,11.4.3,24.5,3.7,35.7,12,40.6,40.9,57.6,85.2,49.2Z"/>
            </g>
            <g>
              <path d="M261.5,193.4l9.1,22.2s12.6-3,24.7-9.6c12.1-6.5,23.8-25.1,23.8-25.1l-24.3-19.8-33.2,32.2Z"/>
              <path d="M183.6,44.8c-14.7,4.4-25.8,17.6-30.4,32.3-4.6,14.7-3.3,30.7.6,45.5,4,14.9,10.5,28.9,16.6,43,3.5,8.1,7,16.5,8.7,25.1.6,2.8.9,5.6,1.4,8.5.8,5.5,1.5,10.4,4.9,14.9,4.2,5.5,11.7,8.5,18.6,9.1,6.9.5,13.8-.3,20.5-1.9-.4-2-.8-4-1.1-6-.3-1.9-.2-4-.8-5.8-.6-1.9-1.1-3.7-1.5-5.6-.9-4-1.7-8-2.6-12-2-9.4-4.1-18.8-6.1-28.3-2.2-10.3-4.4-20.5-6.7-30.8-2.1-9.9-4.3-19.7-6.4-29.6-1.8-8.2-3.5-16.4-5.3-24.6-1.1-5.3-2.3-10.5-3.4-15.8-.2-1.1-.3-2.8-.8-3.8l-6.4-14.1Z"/>
              <polygon class="cls-1" points="208 207.4 218.1 228.9 278.6 224.4 268.9 194.6 208 207.4"/>
              <path class="cls-9" d="M187.5,48.3s-12.6,5-15.6,31.2c-3,26.2-4,43.8-5,50.9-1,7.1-19.6,20.1-16.6,39.8,3,19.6,19.6,38.8,57.4,40.3,37.8,1.5,78.1-10.1,91.7-38.3,13.6-28.2,11.1-71,11.1-71,0,0-29.2-44.8-48.4-56.4-19.1-11.6-37.3-11.1-37.3-11.1l-37.3,14.6Z"/>
              <path class="cls-13" d="M198.4,44.1l-11,4.3s-12.6,5-15.6,31.2c-.2,2-.5,4-.7,5.9,20.6.9,76.5,7.3,121.8,49l6-39.3-34.8-37-65.9-14.1Z"/>
              <path d="M184.9,41.2s-4.9,38.5,18.9,43.8,43.8,9.4,49.5,11.3,12.8,5.3,14.7,12.5c1.9,7.2,7.6,72.5,51,72.2,0,0,9.1-16.6,3.8-43.4-5.3-26.8-35.1-49.1-35.1-49.1l-63-54.7-39.8,7.4Z"/>
              <g>
                <g>
                  <path d="M183.1,134.9c0,2.9-2.4,5.3-5.3,5.3s-5.3-2.4-5.3-5.3,2.4-5.3,5.3-5.3,5.3,2.4,5.3,5.3Z"/>
                  <path class="cls-2" d="M172.1,126.2s-1.1,5.3,5.3,6.4"/>
                  <path class="cls-10" d="M181.9,134.1c0,.9-.7,1.6-1.6,1.6s-1.6-.7-1.6-1.6.7-1.6,1.6-1.6,1.6.7,1.6,1.6Z"/>
                </g>
                <g>
                  <path d="M230.3,136.9c0,2.9-2.4,5.3-5.3,5.3s-5.3-2.4-5.3-5.3,2.4-5.3,5.3-5.3,5.3,2.4,5.3,5.3Z"/>
                  <path class="cls-2" d="M234.4,130.9s-.5,5.4-7,4.5"/>
                  <circle class="cls-10" cx="227.5" cy="136.1" r="1.6"/>
                </g>
                <path class="cls-5" d="M174.4,107.8s3.5-3.5,8.3-2.3c4.8,1.3,5.8,6.5,5.8,6.5"/>
                <path class="cls-5" d="M220.2,111.1s4-5.3,11.3-4.3c7.3,1,7.3,7.6,7.3,7.6"/>
                <path class="cls-2" d="M197.5,140.3s-10.8,3.5-9.8,7.1c1,3.5,6.8,7.3,6.8,7.3"/>
                <path class="cls-19" d="M186.2,171l30.2-5s-5,15.6-12.3,16.6c-7.3,1-15.1-7.1-17.9-11.6Z"/>
                <ellipse class="cls-6" cx="236.6" cy="155.1" rx="13.3" ry="9.8"/>
                <path class="cls-6" d="M180.5,152.8c-.3,4.8-5.9,8.4-12.5,7.9-6.5-.5-11.6-4.7-11.2-9.6.3-4.8,5.9-8.4,12.5-7.9,6.5.5,11.6,4.7,11.2,9.6Z"/>
              </g>
            </g>
            <g>
              <path class="cls-18" d="M141.6,55.9l46.5-7.2c26.5-4.1,53.5,4.6,72.5,23.6,21.6,21.5,48,48.5,55.4,59.5,0,0,13.2,30.2-10.6,57-23.8,26.8-80.8,34.8-80.8,34.8l62.1,5.5s28.6,0,42.3-14.1c14.1-14.6,38-80.6,31.2-107.8-2.5-10.1-15.1-40.3-39.8-57.9-28.5-20.3-50.9-22.7-50.9-22.7,0,0-30.9-19.1-46.3-20.7-15.5-1.5-71,24.2-81.6,49.9Z"/>
              <path class="cls-12" d="M241.4,225.1l64.1,1.7c8.2-1.9,17.4-5.4,23.6-11.8,8.2-8.5,19.8-34.5,26.7-60.1-.6,1-28.1,47.7-46.1,56.6s-61.1,11.9-75,13l6.8.6Z"/>
            </g>
          </g>
          <g>
            <path class="cls-8" d="M278.6,272.4c-.8,1.9-1.7,3.9-1.7,6,0,2.1,1,4.4,2.9,5.2,1.6.7,3.5.2,5-.8,1.4-1,2.5-2.5,3.4-4,.8,3.4,3.9,6,7.3,6.4,3.4.4,7-1.5,8.6-4.6,1.8,4,6.6,6,9.8,4.4,3.9-2,4-7.6,4.6-11.9l-1-.4-38.8-.4Z"/>
            <path class="cls-16" d="M295,235s-18.1,1.6-17.7,26.1l-1.2,13.3,43,3.2s13.7-47.8-24.1-42.6Z"/>
          </g>
          <g>
            <path class="cls-18" d="M234.8,226.2s-38.8,16.1-48.9,19.1c-10.1,3-16.1,0-16.1,0,0,0,12.3-14.3,30.2-21.2,17.1-6.5,34.8,2,34.8,2Z"/>
            <path class="cls-18" d="M247.7,246.1c-1.3-3.7-3-7.3-5.1-10.8-2-3.2-4.2-6.9-7.5-9.2-1.3-.9-2.9-1.7-4.5-1.4-1.7.3-3.5,0-5.1.7-.6.2-1.2.8-1.7,1.2-2.7,1.8-4.8,4.2-6.9,6.6-2.9,3.4-5.5,7.2-7.6,11.1-2.4,4.4-2.8,7.8-1.2,10.4,1,1.6,2.6,2.6,4.6,2.9,2.6.4,5.4-.5,7.3-2.2,3.2-2.8,4.4-7.2,5.3-10.6v-.2c-.7,10.3,0,5.8-3.6,17.8l2.6.8c4.7-15.3,3.8-14.7,4.2-25.8,1.1,7.8,3.3,18.8,7,27.4l2.5-1.1c-1.7-4-3.1-8.6-4.2-13.2,1.5,2.9,3.4,5.6,5.8,7.9,1.4,1.3,3.2,2.4,5,2.4s1.5-.2,2.2-.7c.9-.6,1.5-1.5,1.9-2.8,1.4-4,.2-8.2-.9-11.5ZM222.7,244.2c-.8,3.1-1.9,7-4.5,9.3-1.3,1.2-3.3,1.8-5.1,1.5-.9-.1-2-.5-2.7-1.7-1.1-1.7-.7-4.2,1.2-7.7,2.1-3.8,4.5-7.3,7.3-10.6,2.5-2.9,4.8-5.3,7.1-6.6,0,1.1,0,2.4,0,3.9l-3.2,11.9ZM246.1,256.8c-.2.7-.5,1.2-.9,1.4-.9.6-2.6-.3-3.8-1.5-7.4-7.2-9.6-18.1-11.4-29.5,1.2,0,2.4.4,3.6,1.2,2.9,1.9,4.9,5.3,6.7,8.3,2,3.3,3.6,6.7,4.9,10.3,1,2.8,2,6.5.9,9.7Z"/>
            <path class="cls-18" d="M224.6,223.6s15.2,3.5,48,28.7c32.7,25.2,97.5,82.9,108,80.8-31.2-67-38-93.4-63.2-106-25.2-12.6-46.8-11.6-46.8-11.6l-46,8.1Z"/>
          </g>
        </g>
      </g>
    </g>
  </g>
</svg>